# xmcd
#
# Track frame offsets: 
#        150
#        12400
#        24294
#        36992
#        49967
#        62397
#        77474
#        89435
#        100827
#        114471
#        128394
#        142720
#        166707
#        178730
#        197891
#        220950
#
# Disc length: 3124 seconds
#
# Revision: 4
# Processed by: cddbd v1.5.2PL0 Copyright (c) Steve Scherf et al.
# Submitted via: ExactAudioCopyFreeDBPlugin 1.0
#
DISCID=c70c3210
DTITLE=Bobby Bare - 16 Biggest Hits
DYEAR=2007
DGENRE=Country
TTITLE0=500 Miles Away From home
TTITLE1=The Streets Of Baltimore
TTITLE2=Detroit City
TTITLE3=Miller's Cave
TTITLE4=Four Strong Winds
TTITLE5=(Margie's At) The Lincoln Park Inn
TTITLE6=It's Alright
TTITLE7=That's How I Got To Memphis
TTITLE8=Ride Me Down Easy
TTITLE9=Daddy What If
TTITLE10=Marie Laveau
TTITLE11=The Winner
TTITLE12=Dropkick Me, Jesus
TTITLE13=Tequila Sheila
TTITLE14=Numbers
TTITLE15=The All American Boy
EXTD=
EXTT0=
EXTT1=
EXTT2=
EXTT3=
EXTT4=
EXTT5=
EXTT6=
EXTT7=
EXTT8=
EXTT9=
EXTT10=
EXTT11=
EXTT12=
EXTT13=
EXTT14=
EXTT15=
PLAYORDER=
